<svg width="1024" height="994" viewBox="0 0 1024 994" fill="none" xmlns="http://www.w3.org/2000/svg">
<rect width="1024" height="994" fill="#1A3763"/>
<path d="M339.452 251.8C347.149 251.408 354.867 250.843 362.563 251.43C431.242 251.495 499.943 251.43 568.622 251.452C599.494 251.604 631.453 258.257 656.999 276.41C678.522 291.455 693.741 314.37 701.698 339.198C706.611 354.373 709.285 370.287 709.72 386.223C709.655 454.228 709.742 522.255 709.677 590.261C759.289 638.112 809.01 685.877 858.645 733.706C860.297 735.337 862.536 737.446 861.884 740.011C860.688 742.316 857.688 742.533 855.405 742.794C691.132 742.751 526.858 742.794 362.606 742.794C333.756 742.946 304.167 738.663 278.295 725.249C263.251 717.488 249.815 706.509 239.51 693.073C222.248 670.702 213.595 642.634 211.703 614.697C211.029 607.827 211.377 600.914 211.486 594.022C211.486 517.885 211.486 441.749 211.486 365.613C212.051 342.263 218.726 318.522 233.227 299.912C247.706 280.976 269.034 268.388 291.405 261.039C306.95 255.909 323.168 253.082 339.452 251.8ZM310.559 314.957C299.667 318.5 289.644 325.371 283.405 335.089C277.013 345.003 274.034 357.003 274.404 368.743C274.404 401.876 274.404 435.009 274.404 468.142C303.319 468.142 332.234 468.164 361.171 468.142V420.682C361.085 412.856 364.563 404.855 371.02 400.268C377.521 395.572 385.826 394.332 393.696 394.528C406.871 394.528 420.046 394.528 433.221 394.528C433.286 366.852 433.199 339.176 433.264 311.5C403.327 311.413 373.39 311.5 343.474 311.456C332.43 310.391 321.125 311.522 310.559 314.957ZM491.725 311.435C491.595 339.133 491.682 366.83 491.682 394.528C505.639 394.55 519.618 394.528 533.576 394.528C541.033 394.572 548.882 396.224 554.817 400.985C560.709 405.638 563.818 413.247 563.731 420.661C563.731 436.488 563.578 452.315 563.644 468.142C592.602 468.186 621.561 468.142 650.498 468.142V367.156C650.694 359.134 649.411 351.046 646.585 343.524C642.671 332.893 634.606 323.957 624.561 318.783C611.386 311.935 596.059 310.174 581.428 311.456C551.534 311.435 521.64 311.522 491.747 311.413L491.725 311.435ZM274.426 525.821C274.404 560.802 274.426 595.761 274.426 630.742C274.665 639.047 276.295 647.461 280.296 654.831C285.057 663.853 293.188 670.81 302.384 675.072C315.624 681.268 330.539 683.159 345.018 682.507C374.433 682.529 403.849 682.507 433.242 682.507C433.242 654.831 433.264 627.133 433.242 599.457C419.263 599.457 405.305 599.457 391.348 599.457C383.891 599.435 376.042 597.761 370.107 593C364.215 588.326 361.128 580.716 361.215 573.281V525.821C332.3 525.821 303.384 525.821 274.447 525.821H274.426ZM563.535 529.234C563.448 544.17 563.513 559.106 563.513 574.02C563.752 580.39 562.122 587.108 557.708 591.891C552.773 597.087 545.403 599.348 538.381 599.261C522.249 599.196 506.117 599.348 489.986 599.174C489.616 602.783 489.899 606.392 489.812 610.023C489.79 633.786 489.877 657.527 489.768 681.289C496.617 681.55 503.487 681.333 510.335 681.398C578.927 681.355 647.52 681.485 716.112 681.333C686.631 651.722 656.955 622.328 627.453 592.739C606.06 571.672 585.124 550.105 563.557 529.234H563.535Z" fill="white"/>
<path d="M563.535 529.234C585.124 550.105 606.038 571.672 627.431 592.739C656.934 622.329 686.61 651.722 716.09 681.333C647.498 681.485 578.906 681.355 510.313 681.398C503.443 681.333 496.595 681.55 489.747 681.29C489.855 657.527 489.747 633.786 489.79 610.023C489.877 606.392 489.595 602.762 489.964 599.174C506.096 599.348 522.227 599.175 538.359 599.262C545.381 599.348 552.773 597.087 557.687 591.891C562.1 587.108 563.731 580.39 563.492 574.02C563.492 559.084 563.426 544.149 563.513 529.234H563.535Z" fill="#54A69A"/>
</svg>
